<svg width="24" height="24" viewBox="0 0 24 24" fill="none" xmlns="http://www.w3.org/2000/svg">
<path d="M11 1C11 0.447716 11.4478 0 12 0C12.5522 0 13 0.447716 13 1V3C13 3.55228 12.5522 4 12 4C11.4478 4 11 3.55228 11 3V1Z" fill="#FFCC4A"/>
<path d="M19 12C19 15.866 15.866 19 12 19C8.13403 19 5 15.866 5 12C5 8.13401 8.13403 5 12 5C15.866 5 19 8.13401 19 12Z" fill="#FFCC4A"/>
<path d="M12 20C11.4478 20 11 20.4477 11 21V23C11 23.5523 11.4478 24 12 24C12.5522 24 13 23.5523 13 23V21C13 20.4477 12.5522 20 12 20Z" fill="#FFCC4A"/>
<path d="M23 11C23.5522 11 24 11.4477 24 12C24 12.5523 23.5522 13 23 13H21C20.4478 13 20 12.5523 20 12C20 11.4477 20.4478 11 21 11H23Z" fill="#FFCC4A"/>
<path d="M4 12C4 11.4477 3.55225 11 3 11L1 11C0.447754 11 0 11.4477 0 12C0 12.5523 0.447754 13 1 13L3 13C3.55225 13 4 12.5523 4 12Z" fill="#FFCC4A"/>
<path d="M19.2634 3.70711C19.6541 3.31658 20.2871 3.31658 20.6777 3.70711C21.0682 4.09763 21.0682 4.7308 20.6777 5.12132L19.2634 6.53553C18.8729 6.92606 18.2397 6.92606 17.8492 6.53553C17.4587 6.14501 17.4587 5.51184 17.8492 5.12132L19.2634 3.70711Z" fill="#FFCC4A"/>
<path d="M6.53552 17.8492C6.14502 17.4587 5.51184 17.4587 5.12134 17.8492L3.70715 19.2635C3.31665 19.654 3.31665 20.2871 3.70715 20.6777C4.09766 21.0682 4.73083 21.0682 5.12134 20.6777L6.53552 19.2635C6.92603 18.8729 6.92603 18.2398 6.53552 17.8492Z" fill="#FFCC4A"/>
<path d="M20.6776 19.2634C21.0682 19.654 21.0682 20.2871 20.6776 20.6777C20.2871 21.0682 19.6539 21.0682 19.2634 20.6777L17.8492 19.2634C17.4587 18.8729 17.4587 18.2398 17.8492 17.8492C18.2397 17.4587 18.8729 17.4587 19.2634 17.8492L20.6776 19.2634Z" fill="#FFCC4A"/>
<path d="M6.53552 6.53552C6.92603 6.145 6.92603 5.51183 6.53552 5.12131L5.12134 3.70709C4.73083 3.31657 4.09766 3.31657 3.70715 3.70709C3.31653 4.09762 3.31653 4.73078 3.70715 5.12131L5.12134 6.53552C5.51184 6.92605 6.14502 6.92605 6.53552 6.53552Z" fill="#FFCC4A"/>
</svg>
